<?xml version="1.0" encoding="utf-8"?>
<svg version="1.1" id="Ebene_1" xmlns="http://www.w3.org/2000/svg" xmlns:xlink="http://www.w3.org/1999/xlink" x="0px" y="0px" xml:space="preserve" viewBox="0 0 24 16">
	<path d="M3.2402954,5.0178223c0,3.7209473,4.7620239,3.3209839,4.7620239,5.84198c0,1.5-1.3210449,2.1799927-2.6620483,2.1799927
		c-1.1999512,0-2.3399658-0.4609985-3.4199829-0.9609985l-0.7199707,2.3809814
		c1.2600098,0.460022,2.6399536,0.7800293,3.9799805,0.7800293c3.0609741,0,5.7420044-1.2399902,5.7420044-4.6610107
		c0-3.8809814-4.7609863-3.7409668-4.7609863-5.9810181c0-1.1999512,1.3399658-1.6009521,2.3410034-1.6009521
		c1.0189819,0,2.0799561,0.3009644,2.8999634,0.7209473l0.6600342-2.3009644
		C10.9223022,0.9567871,9.6622925,0.796814,8.4412842,0.796814C5.7603149,0.796814,3.2402954,2.0767822,3.2402954,5.0178223z"/>
	<polygon points="22.8925171,3.2371216 23.3724976,1.0371094 15.6704712,1.0371094 12.7304688,15.0001221 15.5305176,15.0001221 
		16.8115234,8.8790894 21.4915161,8.8790894 21.9324951,6.6781006 17.2714844,6.6781006 18.0114746,3.2371216 	"/>
</svg>
